<svg width="68" height="68" viewBox="0 0 68 68" fill="none" xmlns="http://www.w3.org/2000/svg">
<rect width="67.4375" height="67.4375" rx="33.7188" fill="url(#paint0_linear_139_9584)"/>
<path d="M22.9642 49.9273V45.5698L35.7462 34.178C36.7422 33.2927 37.4338 32.4558 37.8212 31.6673C38.2085 30.8788 38.4022 30.1179 38.4022 29.3848C38.4022 28.3888 38.1877 27.5034 37.7589 26.7288C37.3301 25.9403 36.7352 25.3178 35.9744 24.8613C35.2274 24.4048 34.3628 24.1765 33.3807 24.1765C32.3432 24.1765 31.4232 24.4186 30.6209 24.9028C29.8324 25.3731 29.2168 26.0025 28.7742 26.791C28.3315 27.5795 28.124 28.4303 28.1517 29.3433H23.0057C23.0057 27.3513 23.4483 25.6152 24.3337 24.135C25.2328 22.6548 26.464 21.5067 28.0272 20.6905C29.6042 19.8743 31.4232 19.4663 33.4844 19.4663C35.3934 19.4663 37.1087 19.8951 38.6304 20.7528C40.1521 21.5966 41.3487 22.7724 42.2202 24.2803C43.0917 25.7743 43.5274 27.4965 43.5274 29.447C43.5274 30.8718 43.3337 32.0684 42.9464 33.0368C42.5591 34.0051 41.9781 34.8973 41.2034 35.7135C40.4426 36.5297 39.495 37.4358 38.3607 38.4317L29.2929 46.462L28.8364 45.217H43.5274V49.9273H22.9642Z" fill="white"/>
<defs>
<linearGradient id="paint0_linear_139_9584" x1="0" y1="0" x2="68.6025" y2="14.4723" gradientUnits="userSpaceOnUse">
<stop offset="0.09" stop-color="#CE0613"/>
<stop offset="1" stop-color="#8B0101"/>
</linearGradient>
</defs>
</svg>
