<svg width="68" height="68" viewBox="0 0 68 68" fill="none" xmlns="http://www.w3.org/2000/svg">
<rect width="67.4375" height="67.4375" rx="33.7188" fill="url(#paint0_linear_139_9589)"/>
<path d="M33.944 50.529C32.45 50.529 31.039 50.2385 29.711 49.6575C28.383 49.0765 27.2279 48.2534 26.2457 47.1883C25.2774 46.1231 24.5788 44.8643 24.15 43.4118L28.9847 42.1045C29.3306 43.2942 29.96 44.2141 30.873 44.8643C31.7998 45.5006 32.8166 45.8118 33.9232 45.798C34.9054 45.798 35.7838 45.5698 36.5585 45.1133C37.3332 44.6568 37.9418 44.0412 38.3845 43.2665C38.8272 42.478 39.0485 41.5996 39.0485 40.6313C39.0485 39.1511 38.5712 37.913 37.6167 36.917C36.6622 35.921 35.4311 35.423 33.9232 35.423C33.4667 35.423 33.0172 35.4853 32.5745 35.6098C32.1457 35.7343 31.7307 35.9072 31.3295 36.1285L29.047 32.186L39.09 23.5955L39.5257 24.799H25.312V20.0888H43.6342V24.8198L35.5625 32.5803L35.521 31.107C37.3332 31.2315 38.8756 31.7364 40.1482 32.6218C41.4347 33.5071 42.4169 34.6483 43.0947 36.0455C43.7864 37.4427 44.1322 38.9713 44.1322 40.6313C44.1322 42.5126 43.6688 44.2003 42.742 45.6943C41.829 47.1883 40.5978 48.371 39.0485 49.2425C37.513 50.1002 35.8115 50.529 33.944 50.529Z" fill="white"/>
<defs>
<linearGradient id="paint0_linear_139_9589" x1="0" y1="0" x2="68.6025" y2="14.4723" gradientUnits="userSpaceOnUse">
<stop offset="0.09" stop-color="#CE0613"/>
<stop offset="1" stop-color="#8B0101"/>
</linearGradient>
</defs>
</svg>
