<svg width="391" height="85" viewBox="0 0 391 85" fill="none" xmlns="http://www.w3.org/2000/svg">
<g filter="url(#filter0_d_146_17)">
<rect x="30.5273" y="16.9598" width="343.365" height="37.3116" rx="8.47991" fill="white" shape-rendering="crispEdges"/>
<rect x="50.8789" y="23.7438" width="23.7437" height="23.7437" rx="3.39196" fill="#FFEFEF"/>
<path d="M62.7511 40.1945L66.4524 42.2766C67.1303 42.6582 67.9597 42.0941 67.7814 41.3807L66.8003 37.4653L70.0735 34.8273C70.6711 34.3462 70.35 33.4337 69.5651 33.3756L65.2573 33.0355L63.5716 29.3357C63.2684 28.6638 62.2338 28.6638 61.9305 29.3357L60.2448 33.0272L55.937 33.3673C55.1521 33.4254 54.831 34.3379 55.4286 34.819L58.7019 37.457L57.7208 41.3724C57.5424 42.0858 58.3718 42.6499 59.0497 42.2683L62.7511 40.1945Z" fill="#AB0000"/>
<path d="M90.8637 35.2719C91.3702 35.3623 91.7998 35.6292 92.1526 36.0724C92.5054 36.5156 92.6818 37.0176 92.6818 37.5784C92.6818 38.0578 92.5551 38.492 92.3019 38.8809C92.0576 39.2608 91.7003 39.5638 91.23 39.79C90.7596 40.0071 90.2124 40.1156 89.5883 40.1156H85.8164V30.6859H89.4119C90.0541 30.6859 90.6059 30.7945 91.0672 31.0116C91.5285 31.2287 91.8767 31.5226 92.1119 31.8935C92.3471 32.2553 92.4647 32.6623 92.4647 33.1146C92.4647 33.6573 92.3199 34.1096 92.0305 34.4714C91.741 34.8332 91.3521 35.1 90.8637 35.2719ZM87.3632 34.6478H89.2762C89.7828 34.6478 90.1762 34.5347 90.4566 34.3086C90.7461 34.0734 90.8908 33.7387 90.8908 33.3045C90.8908 32.8794 90.7461 32.5493 90.4566 32.3141C90.1762 32.0699 89.7828 31.9478 89.2762 31.9478H87.3632V34.6478ZM89.4526 38.8538C89.9772 38.8538 90.3888 38.7272 90.6873 38.4739C90.9858 38.2206 91.135 37.8679 91.135 37.4156C91.135 36.9543 90.9767 36.588 90.6601 36.3166C90.3436 36.0452 89.923 35.9096 89.3983 35.9096H87.3632V38.8538H89.4526ZM101.214 36.1945C101.214 36.4749 101.196 36.7282 101.16 36.9543H95.448C95.4932 37.5513 95.7148 38.0307 96.1128 38.3925C96.5108 38.7543 96.9993 38.9352 97.5782 38.9352C98.4103 38.9352 98.9983 38.587 99.342 37.8905H101.011C100.785 38.5779 100.373 39.1432 99.7762 39.5865C99.1882 40.0206 98.4555 40.2377 97.5782 40.2377C96.8636 40.2377 96.2214 40.0794 95.6515 39.7628C95.0907 39.4372 94.6475 38.9849 94.3219 38.4061C94.0053 37.8181 93.847 37.1397 93.847 36.3709C93.847 35.602 94.0008 34.9282 94.3083 34.3493C94.6249 33.7613 95.0636 33.3091 95.6244 32.9925C96.1942 32.6759 96.8455 32.5176 97.5782 32.5176C98.2837 32.5176 98.9123 32.6714 99.4641 32.9789C100.016 33.2864 100.445 33.7206 100.753 34.2814C101.061 34.8332 101.214 35.4709 101.214 36.1945ZM99.5998 35.706C99.5907 35.1362 99.3872 34.6794 98.9892 34.3357C98.5912 33.992 98.0983 33.8201 97.5103 33.8201C96.9766 33.8201 96.5199 33.992 96.14 34.3357C95.7601 34.6704 95.5339 35.1272 95.4616 35.706H99.5998ZM105.45 40.2377C104.862 40.2377 104.333 40.1337 103.863 39.9257C103.401 39.7086 103.035 39.4191 102.764 39.0573C102.492 38.6865 102.348 38.2749 102.329 37.8226H103.93C103.958 38.1392 104.107 38.4061 104.378 38.6231C104.659 38.8312 105.007 38.9352 105.423 38.9352C105.857 38.9352 106.192 38.8538 106.427 38.691C106.671 38.5191 106.793 38.302 106.793 38.0397C106.793 37.7593 106.658 37.5513 106.386 37.4156C106.124 37.2799 105.703 37.1307 105.124 36.9679C104.564 36.8141 104.107 36.6648 103.754 36.5201C103.401 36.3754 103.094 36.1538 102.831 35.8553C102.578 35.5568 102.452 35.1633 102.452 34.6749C102.452 34.2769 102.569 33.9151 102.804 33.5895C103.04 33.2548 103.374 32.9925 103.808 32.8025C104.252 32.6126 104.758 32.5176 105.328 32.5176C106.178 32.5176 106.861 32.7347 107.377 33.1689C107.901 33.594 108.182 34.1774 108.218 34.9191H106.671C106.644 34.5844 106.508 34.3176 106.264 34.1186C106.02 33.9196 105.69 33.8201 105.274 33.8201C104.867 33.8201 104.555 33.897 104.337 34.0508C104.12 34.2045 104.012 34.4081 104.012 34.6613C104.012 34.8603 104.084 35.0277 104.229 35.1633C104.374 35.299 104.55 35.4076 104.758 35.489C104.966 35.5613 105.274 35.6563 105.681 35.7739C106.223 35.9186 106.667 36.0679 107.01 36.2216C107.363 36.3663 107.666 36.5834 107.919 36.8729C108.173 37.1623 108.304 37.5468 108.313 38.0262C108.313 38.4513 108.195 38.8312 107.96 39.1659C107.725 39.5005 107.39 39.7628 106.956 39.9528C106.531 40.1427 106.029 40.2377 105.45 40.2377ZM111.789 33.9015V38.0397C111.789 38.3201 111.852 38.5236 111.979 38.6503C112.114 38.7679 112.34 38.8267 112.657 38.8267H113.607V40.1156H112.386C111.689 40.1156 111.156 39.9528 110.785 39.6272C110.414 39.3015 110.228 38.7724 110.228 38.0397V33.9015H109.346V32.6397H110.228V30.7809H111.789V32.6397H113.607V33.9015H111.789ZM120.361 33.9015V38.0397C120.361 38.3201 120.425 38.5236 120.551 38.6503C120.687 38.7679 120.913 38.8267 121.23 38.8267H122.179V40.1156H120.958C120.262 40.1156 119.728 39.9528 119.357 39.6272C118.986 39.3015 118.801 38.7724 118.801 38.0397V33.9015H117.919V32.6397H118.801V30.7809H120.361V32.6397H122.179V33.9015H120.361ZM130.457 36.1945C130.457 36.4749 130.439 36.7282 130.403 36.9543H124.69C124.736 37.5513 124.957 38.0307 125.355 38.3925C125.753 38.7543 126.242 38.9352 126.821 38.9352C127.653 38.9352 128.241 38.587 128.584 37.8905H130.253C130.027 38.5779 129.616 39.1432 129.019 39.5865C128.431 40.0206 127.698 40.2377 126.821 40.2377C126.106 40.2377 125.464 40.0794 124.894 39.7628C124.333 39.4372 123.89 38.9849 123.564 38.4061C123.248 37.8181 123.089 37.1397 123.089 36.3709C123.089 35.602 123.243 34.9282 123.551 34.3493C123.867 33.7613 124.306 33.3091 124.867 32.9925C125.437 32.6759 126.088 32.5176 126.821 32.5176C127.526 32.5176 128.155 32.6714 128.707 32.9789C129.258 33.2864 129.688 33.7206 129.995 34.2814C130.303 34.8332 130.457 35.4709 130.457 36.1945ZM128.842 35.706C128.833 35.1362 128.63 34.6794 128.232 34.3357C127.834 33.992 127.341 33.8201 126.753 33.8201C126.219 33.8201 125.762 33.992 125.382 34.3357C125.003 34.6704 124.776 35.1272 124.704 35.706H128.842ZM131.463 36.3437C131.463 35.593 131.617 34.9282 131.925 34.3493C132.241 33.7704 132.666 33.3226 133.2 33.006C133.743 32.6804 134.34 32.5176 134.991 32.5176C135.579 32.5176 136.09 32.6352 136.524 32.8704C136.967 33.0965 137.32 33.3814 137.582 33.7251V32.6397H139.143V40.1156H137.582V39.003C137.32 39.3558 136.963 39.6498 136.511 39.8849C136.058 40.1201 135.543 40.2377 134.964 40.2377C134.322 40.2377 133.734 40.0749 133.2 39.7493C132.666 39.4146 132.241 38.9533 131.925 38.3653C131.617 37.7684 131.463 37.0945 131.463 36.3437ZM137.582 36.3709C137.582 35.8553 137.474 35.4076 137.257 35.0277C137.049 34.6478 136.773 34.3583 136.429 34.1593C136.085 33.9603 135.715 33.8608 135.317 33.8608C134.919 33.8608 134.548 33.9603 134.204 34.1593C133.86 34.3493 133.58 34.6342 133.363 35.0141C133.155 35.3849 133.051 35.8282 133.051 36.3437C133.051 36.8593 133.155 37.3116 133.363 37.7005C133.58 38.0895 133.86 38.388 134.204 38.596C134.557 38.795 134.928 38.8945 135.317 38.8945C135.715 38.8945 136.085 38.795 136.429 38.596C136.773 38.397 137.049 38.1076 137.257 37.7277C137.474 37.3387 137.582 36.8865 137.582 36.3709ZM150.224 32.5176C150.812 32.5176 151.337 32.6397 151.798 32.8839C152.268 33.1282 152.635 33.49 152.897 33.9694C153.168 34.4488 153.304 35.0277 153.304 35.706V40.1156H151.771V35.9367C151.771 35.2674 151.603 34.7563 151.269 34.4035C150.934 34.0417 150.477 33.8608 149.898 33.8608C149.32 33.8608 148.858 34.0417 148.515 34.4035C148.18 34.7563 148.013 35.2674 148.013 35.9367V40.1156H146.479V35.9367C146.479 35.2674 146.312 34.7563 145.977 34.4035C145.643 34.0417 145.186 33.8608 144.607 33.8608C144.028 33.8608 143.567 34.0417 143.223 34.4035C142.888 34.7563 142.721 35.2674 142.721 35.9367V40.1156H141.174V32.6397H142.721V33.4945C142.974 33.1869 143.295 32.9472 143.684 32.7754C144.073 32.6035 144.489 32.5176 144.933 32.5176C145.53 32.5176 146.063 32.6442 146.534 32.8975C147.004 33.1508 147.366 33.5171 147.619 33.9965C147.845 33.5442 148.198 33.1869 148.677 32.9246C149.157 32.6533 149.672 32.5176 150.224 32.5176ZM162.039 40.2377C161.334 40.2377 160.696 40.0794 160.126 39.7628C159.556 39.4372 159.109 38.9849 158.783 38.4061C158.457 37.8181 158.295 37.1397 158.295 36.3709C158.295 35.6111 158.462 34.9372 158.797 34.3493C159.131 33.7613 159.588 33.3091 160.167 32.9925C160.746 32.6759 161.393 32.5176 162.107 32.5176C162.822 32.5176 163.469 32.6759 164.047 32.9925C164.626 33.3091 165.083 33.7613 165.418 34.3493C165.752 34.9372 165.92 35.6111 165.92 36.3709C165.92 37.1307 165.748 37.8045 165.404 38.3925C165.06 38.9804 164.59 39.4372 163.993 39.7628C163.405 40.0794 162.754 40.2377 162.039 40.2377ZM162.039 38.8945C162.437 38.8945 162.808 38.7995 163.152 38.6096C163.505 38.4196 163.79 38.1347 164.007 37.7548C164.224 37.3749 164.332 36.9136 164.332 36.3709C164.332 35.8282 164.228 35.3714 164.02 35.0005C163.812 34.6206 163.536 34.3357 163.193 34.1457C162.849 33.9558 162.478 33.8608 162.08 33.8608C161.682 33.8608 161.311 33.9558 160.967 34.1457C160.633 34.3357 160.366 34.6206 160.167 35.0005C159.968 35.3714 159.869 35.8282 159.869 36.3709C159.869 37.1759 160.072 37.8 160.479 38.2432C160.895 38.6774 161.415 38.8945 162.039 38.8945ZM170.583 33.9015H169.199V40.1156H167.639V33.9015H166.757V32.6397H167.639V32.1106C167.639 31.2513 167.865 30.6271 168.317 30.2382C168.778 29.8402 169.498 29.6412 170.474 29.6412V30.9302C170.004 30.9302 169.674 31.0206 169.484 31.2015C169.294 31.3734 169.199 31.6764 169.199 32.1106V32.6397H170.583V33.9015ZM177.283 33.9015V38.0397C177.283 38.3201 177.346 38.5236 177.473 38.6503C177.608 38.7679 177.834 38.8267 178.151 38.8267H179.101V40.1156H177.88C177.183 40.1156 176.65 39.9528 176.279 39.6272C175.908 39.3015 175.722 38.7724 175.722 38.0397V33.9015H174.841V32.6397H175.722V30.7809H177.283V32.6397H179.101V33.9015H177.283ZM183.769 40.2377C183.064 40.2377 182.426 40.0794 181.856 39.7628C181.286 39.4372 180.838 38.9849 180.513 38.4061C180.187 37.8181 180.024 37.1397 180.024 36.3709C180.024 35.6111 180.192 34.9372 180.526 34.3493C180.861 33.7613 181.318 33.3091 181.897 32.9925C182.476 32.6759 183.122 32.5176 183.837 32.5176C184.552 32.5176 185.198 32.6759 185.777 32.9925C186.356 33.3091 186.813 33.7613 187.148 34.3493C187.482 34.9372 187.65 35.6111 187.65 36.3709C187.65 37.1307 187.478 37.8045 187.134 38.3925C186.79 38.9804 186.32 39.4372 185.723 39.7628C185.135 40.0794 184.484 40.2377 183.769 40.2377ZM183.769 38.8945C184.167 38.8945 184.538 38.7995 184.882 38.6096C185.234 38.4196 185.519 38.1347 185.736 37.7548C185.954 37.3749 186.062 36.9136 186.062 36.3709C186.062 35.8282 185.958 35.3714 185.75 35.0005C185.542 34.6206 185.266 34.3357 184.922 34.1457C184.579 33.9558 184.208 33.8608 183.81 33.8608C183.412 33.8608 183.041 33.9558 182.697 34.1457C182.363 34.3357 182.096 34.6206 181.897 35.0005C181.698 35.3714 181.598 35.8282 181.598 36.3709C181.598 37.1759 181.802 37.8 182.209 38.2432C182.625 38.6774 183.145 38.8945 183.769 38.8945ZM199.219 32.6397L196.899 40.1156H195.271L193.765 34.5935L192.258 40.1156H190.63L188.297 32.6397H189.871L191.431 38.6503L193.018 32.6397H194.633L196.152 38.6231L197.699 32.6397H199.219ZM201.162 31.6493C200.881 31.6493 200.646 31.5543 200.456 31.3643C200.266 31.1744 200.171 30.9392 200.171 30.6588C200.171 30.3784 200.266 30.1432 200.456 29.9533C200.646 29.7633 200.881 29.6684 201.162 29.6684C201.433 29.6684 201.664 29.7633 201.854 29.9533C202.044 30.1432 202.139 30.3784 202.139 30.6588C202.139 30.9392 202.044 31.1744 201.854 31.3643C201.664 31.5543 201.433 31.6493 201.162 31.6493ZM201.921 32.6397V40.1156H200.375V32.6397H201.921ZM207.724 32.5176C208.312 32.5176 208.837 32.6397 209.298 32.8839C209.768 33.1282 210.135 33.49 210.397 33.9694C210.659 34.4488 210.79 35.0277 210.79 35.706V40.1156H209.257V35.9367C209.257 35.2674 209.09 34.7563 208.755 34.4035C208.421 34.0417 207.964 33.8608 207.385 33.8608C206.806 33.8608 206.345 34.0417 206.001 34.4035C205.666 34.7563 205.499 35.2674 205.499 35.9367V40.1156H203.952V32.6397H205.499V33.4945C205.752 33.1869 206.073 32.9472 206.462 32.7754C206.86 32.6035 207.281 32.5176 207.724 32.5176ZM215.775 32.5176C216.354 32.5176 216.865 32.6352 217.309 32.8704C217.761 33.0965 218.114 33.3814 218.367 33.7251V32.6397H219.927V40.2377C219.927 40.9251 219.782 41.5357 219.493 42.0694C219.204 42.6121 218.783 43.0372 218.231 43.3448C217.688 43.6523 217.037 43.8061 216.277 43.8061C215.264 43.8061 214.423 43.5664 213.754 43.087C213.084 42.6166 212.705 41.9744 212.614 41.1603H214.147C214.265 41.5493 214.514 41.8613 214.893 42.0965C215.282 42.3407 215.744 42.4628 216.277 42.4628C216.902 42.4628 217.404 42.2729 217.783 41.893C218.172 41.5131 218.367 40.9613 218.367 40.2377V38.9895C218.105 39.3422 217.747 39.6407 217.295 39.8849C216.852 40.1201 216.345 40.2377 215.775 40.2377C215.124 40.2377 214.527 40.0749 213.984 39.7493C213.451 39.4146 213.026 38.9533 212.709 38.3653C212.402 37.7684 212.248 37.0945 212.248 36.3437C212.248 35.593 212.402 34.9282 212.709 34.3493C213.026 33.7704 213.451 33.3226 213.984 33.006C214.527 32.6804 215.124 32.5176 215.775 32.5176ZM218.367 36.3709C218.367 35.8553 218.258 35.4076 218.041 35.0277C217.833 34.6478 217.557 34.3583 217.214 34.1593C216.87 33.9603 216.499 33.8608 216.101 33.8608C215.703 33.8608 215.332 33.9603 214.988 34.1593C214.645 34.3493 214.364 34.6342 214.147 35.0141C213.939 35.3849 213.835 35.8282 213.835 36.3437C213.835 36.8593 213.939 37.3116 214.147 37.7005C214.364 38.0895 214.645 38.388 214.988 38.596C215.341 38.795 215.712 38.8945 216.101 38.8945C216.499 38.8945 216.87 38.795 217.214 38.596C217.557 38.397 217.833 38.1076 218.041 37.7277C218.258 37.3387 218.367 36.8865 218.367 36.3709ZM228.197 40.2377C227.609 40.2377 227.08 40.1337 226.609 39.9257C226.148 39.7086 225.782 39.4191 225.51 39.0573C225.239 38.6865 225.094 38.2749 225.076 37.8226H226.677C226.704 38.1392 226.854 38.4061 227.125 38.6231C227.405 38.8312 227.754 38.9352 228.17 38.9352C228.604 38.9352 228.938 38.8538 229.174 38.691C229.418 38.5191 229.54 38.302 229.54 38.0397C229.54 37.7593 229.404 37.5513 229.133 37.4156C228.871 37.2799 228.45 37.1307 227.871 36.9679C227.31 36.8141 226.854 36.6648 226.501 36.5201C226.148 36.3754 225.84 36.1538 225.578 35.8553C225.325 35.5568 225.198 35.1633 225.198 34.6749C225.198 34.2769 225.316 33.9151 225.551 33.5895C225.786 33.2548 226.121 32.9925 226.555 32.8025C226.998 32.6126 227.505 32.5176 228.075 32.5176C228.925 32.5176 229.608 32.7347 230.123 33.1689C230.648 33.594 230.928 34.1774 230.965 34.9191H229.418C229.391 34.5844 229.255 34.3176 229.011 34.1186C228.767 33.9196 228.436 33.8201 228.02 33.8201C227.613 33.8201 227.301 33.897 227.084 34.0508C226.867 34.2045 226.759 34.4081 226.759 34.6613C226.759 34.8603 226.831 35.0277 226.976 35.1633C227.12 35.299 227.297 35.4076 227.505 35.489C227.713 35.5613 228.02 35.6563 228.427 35.7739C228.97 35.9186 229.413 36.0679 229.757 36.2216C230.11 36.3663 230.413 36.5834 230.666 36.8729C230.919 37.1623 231.051 37.5468 231.06 38.0262C231.06 38.4513 230.942 38.8312 230.707 39.1659C230.472 39.5005 230.137 39.7628 229.703 39.9528C229.278 40.1427 228.776 40.2377 228.197 40.2377ZM234.278 33.7387C234.54 33.395 234.897 33.1055 235.349 32.8704C235.802 32.6352 236.313 32.5176 236.883 32.5176C237.534 32.5176 238.126 32.6804 238.66 33.006C239.203 33.3226 239.628 33.7704 239.935 34.3493C240.243 34.9282 240.397 35.593 240.397 36.3437C240.397 37.0945 240.243 37.7684 239.935 38.3653C239.628 38.9533 239.203 39.4146 238.66 39.7493C238.126 40.0749 237.534 40.2377 236.883 40.2377C236.313 40.2377 235.806 40.1246 235.363 39.8985C234.92 39.6633 234.558 39.3739 234.278 39.0302V43.6704H232.731V32.6397H234.278V33.7387ZM238.823 36.3437C238.823 35.8282 238.714 35.3849 238.497 35.0141C238.289 34.6342 238.009 34.3493 237.656 34.1593C237.312 33.9603 236.941 33.8608 236.543 33.8608C236.154 33.8608 235.784 33.9603 235.431 34.1593C235.087 34.3583 234.807 34.6478 234.59 35.0277C234.382 35.4076 234.278 35.8553 234.278 36.3709C234.278 36.8865 234.382 37.3387 234.59 37.7277C234.807 38.1076 235.087 38.397 235.431 38.596C235.784 38.795 236.154 38.8945 236.543 38.8945C236.941 38.8945 237.312 38.795 237.656 38.596C238.009 38.388 238.289 38.0895 238.497 37.7005C238.714 37.3116 238.823 36.8593 238.823 36.3437ZM248.778 36.1945C248.778 36.4749 248.76 36.7282 248.724 36.9543H243.012C243.057 37.5513 243.279 38.0307 243.677 38.3925C244.074 38.7543 244.563 38.9352 245.142 38.9352C245.974 38.9352 246.562 38.587 246.906 37.8905H248.574C248.348 38.5779 247.937 39.1432 247.34 39.5865C246.752 40.0206 246.019 40.2377 245.142 40.2377C244.427 40.2377 243.785 40.0794 243.215 39.7628C242.654 39.4372 242.211 38.9849 241.886 38.4061C241.569 37.8181 241.411 37.1397 241.411 36.3709C241.411 35.602 241.564 34.9282 241.872 34.3493C242.189 33.7613 242.627 33.3091 243.188 32.9925C243.758 32.6759 244.409 32.5176 245.142 32.5176C245.847 32.5176 246.476 32.6714 247.028 32.9789C247.58 33.2864 248.009 33.7206 248.317 34.2814C248.624 34.8332 248.778 35.4709 248.778 36.1945ZM247.163 35.706C247.154 35.1362 246.951 34.6794 246.553 34.3357C246.155 33.992 245.662 33.8201 245.074 33.8201C244.54 33.8201 244.084 33.992 243.704 34.3357C243.324 34.6704 243.098 35.1272 243.025 35.706H247.163ZM249.785 36.3709C249.785 35.602 249.938 34.9282 250.246 34.3493C250.562 33.7613 250.997 33.3091 251.548 32.9925C252.1 32.6759 252.733 32.5176 253.448 32.5176C254.352 32.5176 255.099 32.7347 255.687 33.1689C256.284 33.594 256.686 34.2045 256.894 35.0005H255.225C255.09 34.6297 254.873 34.3402 254.574 34.1322C254.276 33.9241 253.9 33.8201 253.448 33.8201C252.815 33.8201 252.308 34.0462 251.928 34.4985C251.557 34.9417 251.372 35.5658 251.372 36.3709C251.372 37.1759 251.557 37.8045 251.928 38.2568C252.308 38.7091 252.815 38.9352 253.448 38.9352C254.343 38.9352 254.936 38.5417 255.225 37.7548H256.894C256.677 38.5146 256.27 39.1206 255.673 39.5729C255.076 40.0161 254.334 40.2377 253.448 40.2377C252.733 40.2377 252.1 40.0794 251.548 39.7628C250.997 39.4372 250.562 38.9849 250.246 38.4061C249.938 37.8181 249.785 37.1397 249.785 36.3709ZM259.223 31.6493C258.942 31.6493 258.707 31.5543 258.517 31.3643C258.327 31.1744 258.232 30.9392 258.232 30.6588C258.232 30.3784 258.327 30.1432 258.517 29.9533C258.707 29.7633 258.942 29.6684 259.223 29.6684C259.494 29.6684 259.725 29.7633 259.914 29.9533C260.104 30.1432 260.199 30.3784 260.199 30.6588C260.199 30.9392 260.104 31.1744 259.914 31.3643C259.725 31.5543 259.494 31.6493 259.223 31.6493ZM259.982 32.6397V40.1156H258.436V32.6397H259.982ZM261.497 36.3437C261.497 35.593 261.651 34.9282 261.959 34.3493C262.275 33.7704 262.7 33.3226 263.234 33.006C263.777 32.6804 264.374 32.5176 265.025 32.5176C265.613 32.5176 266.124 32.6352 266.558 32.8704C267.001 33.0965 267.354 33.3814 267.617 33.7251V32.6397H269.177V40.1156H267.617V39.003C267.354 39.3558 266.997 39.6498 266.545 39.8849C266.092 40.1201 265.577 40.2377 264.998 40.2377C264.356 40.2377 263.768 40.0749 263.234 39.7493C262.7 39.4146 262.275 38.9533 261.959 38.3653C261.651 37.7684 261.497 37.0945 261.497 36.3437ZM267.617 36.3709C267.617 35.8553 267.508 35.4076 267.291 35.0277C267.083 34.6478 266.807 34.3583 266.463 34.1593C266.12 33.9603 265.749 33.8608 265.351 33.8608C264.953 33.8608 264.582 33.9603 264.238 34.1593C263.894 34.3493 263.614 34.6342 263.397 35.0141C263.189 35.3849 263.085 35.8282 263.085 36.3437C263.085 36.8593 263.189 37.3116 263.397 37.7005C263.614 38.0895 263.894 38.388 264.238 38.596C264.591 38.795 264.962 38.8945 265.351 38.8945C265.749 38.8945 266.12 38.795 266.463 38.596C266.807 38.397 267.083 38.1076 267.291 37.7277C267.508 37.3387 267.617 36.8865 267.617 36.3709ZM272.755 30.0754V40.1156H271.208V30.0754H272.755ZM275.573 31.6493C275.292 31.6493 275.057 31.5543 274.867 31.3643C274.677 31.1744 274.582 30.9392 274.582 30.6588C274.582 30.3784 274.677 30.1432 274.867 29.9533C275.057 29.7633 275.292 29.6684 275.573 29.6684C275.844 29.6684 276.075 29.7633 276.265 29.9533C276.455 30.1432 276.55 30.3784 276.55 30.6588C276.55 30.9392 276.455 31.1744 276.265 31.3643C276.075 31.5543 275.844 31.6493 275.573 31.6493ZM276.333 32.6397V40.1156H274.786V32.6397H276.333ZM281.077 40.2377C280.489 40.2377 279.96 40.1337 279.49 39.9257C279.028 39.7086 278.662 39.4191 278.391 39.0573C278.119 38.6865 277.974 38.2749 277.956 37.8226H279.557C279.584 38.1392 279.734 38.4061 280.005 38.6231C280.285 38.8312 280.634 38.9352 281.05 38.9352C281.484 38.9352 281.819 38.8538 282.054 38.691C282.298 38.5191 282.42 38.302 282.42 38.0397C282.42 37.7593 282.284 37.5513 282.013 37.4156C281.751 37.2799 281.33 37.1307 280.751 36.9679C280.191 36.8141 279.734 36.6648 279.381 36.5201C279.028 36.3754 278.721 36.1538 278.458 35.8553C278.205 35.5568 278.078 35.1633 278.078 34.6749C278.078 34.2769 278.196 33.9151 278.431 33.5895C278.666 33.2548 279.001 32.9925 279.435 32.8025C279.878 32.6126 280.385 32.5176 280.955 32.5176C281.805 32.5176 282.488 32.7347 283.004 33.1689C283.528 33.594 283.809 34.1774 283.845 34.9191H282.298C282.271 34.5844 282.135 34.3176 281.891 34.1186C281.647 33.9196 281.317 33.8201 280.901 33.8201C280.494 33.8201 280.181 33.897 279.964 34.0508C279.747 34.2045 279.639 34.4081 279.639 34.6613C279.639 34.8603 279.711 35.0277 279.856 35.1633C280.001 35.299 280.177 35.4076 280.385 35.489C280.593 35.5613 280.901 35.6563 281.308 35.7739C281.85 35.9186 282.294 36.0679 282.637 36.2216C282.99 36.3663 283.293 36.5834 283.546 36.8729C283.8 37.1623 283.931 37.5468 283.94 38.0262C283.94 38.4513 283.822 38.8312 283.587 39.1659C283.352 39.5005 283.017 39.7628 282.583 39.9528C282.158 40.1427 281.656 40.2377 281.077 40.2377ZM287.416 33.9015V38.0397C287.416 38.3201 287.479 38.5236 287.606 38.6503C287.741 38.7679 287.967 38.8267 288.284 38.8267H289.234V40.1156H288.013C287.316 40.1156 286.782 39.9528 286.412 39.6272C286.041 39.3015 285.855 38.7724 285.855 38.0397V33.9015H284.973V32.6397H285.855V30.7809H287.416V32.6397H289.234V33.9015H287.416ZM293.373 40.2377C292.785 40.2377 292.256 40.1337 291.785 39.9257C291.324 39.7086 290.958 39.4191 290.686 39.0573C290.415 38.6865 290.27 38.2749 290.252 37.8226H291.853C291.88 38.1392 292.03 38.4061 292.301 38.6231C292.581 38.8312 292.93 38.9352 293.346 38.9352C293.78 38.9352 294.115 38.8538 294.35 38.691C294.594 38.5191 294.716 38.302 294.716 38.0397C294.716 37.7593 294.58 37.5513 294.309 37.4156C294.047 37.2799 293.626 37.1307 293.047 36.9679C292.486 36.8141 292.03 36.6648 291.677 36.5201C291.324 36.3754 291.017 36.1538 290.754 35.8553C290.501 35.5568 290.374 35.1633 290.374 34.6749C290.374 34.2769 290.492 33.9151 290.727 33.5895C290.962 33.2548 291.297 32.9925 291.731 32.8025C292.174 32.6126 292.681 32.5176 293.251 32.5176C294.101 32.5176 294.784 32.7347 295.299 33.1689C295.824 33.594 296.104 34.1774 296.141 34.9191H294.594C294.567 34.5844 294.431 34.3176 294.187 34.1186C293.943 33.9196 293.613 33.8201 293.196 33.8201C292.789 33.8201 292.477 33.897 292.26 34.0508C292.043 34.2045 291.935 34.4081 291.935 34.6613C291.935 34.8603 292.007 35.0277 292.152 35.1633C292.296 35.299 292.473 35.4076 292.681 35.489C292.889 35.5613 293.196 35.6563 293.603 35.7739C294.146 35.9186 294.589 36.0679 294.933 36.2216C295.286 36.3663 295.589 36.5834 295.842 36.8729C296.095 37.1623 296.227 37.5468 296.236 38.0262C296.236 38.4513 296.118 38.8312 295.883 39.1659C295.648 39.5005 295.313 39.7628 294.879 39.9528C294.454 40.1427 293.952 40.2377 293.373 40.2377ZM302.218 31.6493C301.938 31.6493 301.703 31.5543 301.513 31.3643C301.323 31.1744 301.228 30.9392 301.228 30.6588C301.228 30.3784 301.323 30.1432 301.513 29.9533C301.703 29.7633 301.938 29.6684 302.218 29.6684C302.49 29.6684 302.72 29.7633 302.91 29.9533C303.1 30.1432 303.195 30.3784 303.195 30.6588C303.195 30.9392 303.1 31.1744 302.91 31.3643C302.72 31.5543 302.49 31.6493 302.218 31.6493ZM302.978 32.6397V40.1156H301.431V32.6397H302.978ZM308.781 32.5176C309.369 32.5176 309.893 32.6397 310.355 32.8839C310.825 33.1282 311.191 33.49 311.454 33.9694C311.716 34.4488 311.847 35.0277 311.847 35.706V40.1156H310.314V35.9367C310.314 35.2674 310.147 34.7563 309.812 34.4035C309.477 34.0417 309.02 33.8608 308.441 33.8608C307.863 33.8608 307.401 34.0417 307.058 34.4035C306.723 34.7563 306.556 35.2674 306.556 35.9367V40.1156H305.009V32.6397H306.556V33.4945C306.809 33.1869 307.13 32.9472 307.519 32.7754C307.917 32.6035 308.337 32.5176 308.781 32.5176ZM319.149 33.9015V38.0397C319.149 38.3201 319.212 38.5236 319.339 38.6503C319.475 38.7679 319.701 38.8267 320.017 38.8267H320.967V40.1156H319.746C319.049 40.1156 318.516 39.9528 318.145 39.6272C317.774 39.3015 317.589 38.7724 317.589 38.0397V33.9015H316.707V32.6397H317.589V30.7809H319.149V32.6397H320.967V33.9015H319.149ZM325.635 40.2377C324.93 40.2377 324.292 40.0794 323.722 39.7628C323.152 39.4372 322.705 38.9849 322.379 38.4061C322.053 37.8181 321.891 37.1397 321.891 36.3709C321.891 35.6111 322.058 34.9372 322.393 34.3493C322.727 33.7613 323.184 33.3091 323.763 32.9925C324.342 32.6759 324.989 32.5176 325.703 32.5176C326.418 32.5176 327.065 32.6759 327.643 32.9925C328.222 33.3091 328.679 33.7613 329.014 34.3493C329.348 34.9372 329.516 35.6111 329.516 36.3709C329.516 37.1307 329.344 37.8045 329 38.3925C328.656 38.9804 328.186 39.4372 327.589 39.7628C327.001 40.0794 326.35 40.2377 325.635 40.2377ZM325.635 38.8945C326.033 38.8945 326.404 38.7995 326.748 38.6096C327.101 38.4196 327.386 38.1347 327.603 37.7548C327.82 37.3749 327.928 36.9136 327.928 36.3709C327.928 35.8282 327.824 35.3714 327.616 35.0005C327.408 34.6206 327.132 34.3357 326.789 34.1457C326.445 33.9558 326.074 33.8608 325.676 33.8608C325.278 33.8608 324.907 33.9558 324.564 34.1457C324.229 34.3357 323.962 34.6206 323.763 35.0005C323.564 35.3714 323.465 35.8282 323.465 36.3709C323.465 37.1759 323.668 37.8 324.075 38.2432C324.491 38.6774 325.011 38.8945 325.635 38.8945ZM341.085 32.6397L338.765 40.1156H337.137L335.631 34.5935L334.125 40.1156H332.497L330.163 32.6397H331.737L333.297 38.6503L334.885 32.6397H336.499L338.019 38.6231L339.565 32.6397H341.085ZM346.013 32.5176C346.601 32.5176 347.125 32.6397 347.587 32.8839C348.057 33.1282 348.423 33.49 348.686 33.9694C348.948 34.4488 349.079 35.0277 349.079 35.706V40.1156H347.546V35.9367C347.546 35.2674 347.379 34.7563 347.044 34.4035C346.709 34.0417 346.253 33.8608 345.674 33.8608C345.095 33.8608 344.633 34.0417 344.29 34.4035C343.955 34.7563 343.788 35.2674 343.788 35.9367V40.1156H342.241V32.6397H343.788V33.4945C344.041 33.1869 344.362 32.9472 344.751 32.7754C345.149 32.6035 345.57 32.5176 346.013 32.5176ZM351.676 40.2106C351.396 40.2106 351.161 40.1156 350.971 39.9257C350.781 39.7357 350.686 39.5005 350.686 39.2201C350.686 38.9397 350.781 38.7045 350.971 38.5146C351.161 38.3246 351.396 38.2297 351.676 38.2297C351.948 38.2297 352.178 38.3246 352.368 38.5146C352.558 38.7045 352.653 38.9397 352.653 39.2201C352.653 39.5005 352.558 39.7357 352.368 39.9257C352.178 40.1156 351.948 40.2106 351.676 40.2106Z" fill="#AB0000"/>
</g>
<defs>
<filter id="filter0_d_146_17" x="-0.000329971" y="2.09808e-05" width="390.853" height="84.7991" filterUnits="userSpaceOnUse" color-interpolation-filters="sRGB">
<feFlood flood-opacity="0" result="BackgroundImageFix"/>
<feColorMatrix in="SourceAlpha" type="matrix" values="0 0 0 0 0 0 0 0 0 0 0 0 0 0 0 0 0 0 127 0" result="hardAlpha"/>
<feOffset dx="-6.78393" dy="6.78393"/>
<feGaussianBlur stdDeviation="11.8719"/>
<feComposite in2="hardAlpha" operator="out"/>
<feColorMatrix type="matrix" values="0 0 0 0 0 0 0 0 0 0 0 0 0 0 0 0 0 0 0.06 0"/>
<feBlend mode="normal" in2="BackgroundImageFix" result="effect1_dropShadow_146_17"/>
<feBlend mode="normal" in="SourceGraphic" in2="effect1_dropShadow_146_17" result="shape"/>
</filter>
</defs>
</svg>
