<svg width="17" height="22" viewBox="0 0 17 22" fill="none" xmlns="http://www.w3.org/2000/svg">
<path d="M13.0369 20.9333C13.9772 20.6485 15.0024 20.2607 15.3483 20.0607C15.5803 19.9254 15.6134 19.8809 15.5326 19.8042C14.9507 19.2547 10.8581 15.7583 10.8229 15.7805C10.796 15.7946 10.7297 16.0451 10.6738 16.3339C10.5661 16.9036 10.4625 17.0349 10.1229 17.0349C9.84327 17.0328 9.65894 16.8813 9.38969 16.4269C9.27371 16.2289 9.08316 15.9502 8.96925 15.8067C8.85534 15.6654 8.62545 15.3098 8.45769 15.017C8.28992 14.7241 7.99375 14.2413 7.80114 13.9444C7.35999 13.2637 6.84635 12.4335 6.65167 12.0881C6.57089 11.9406 6.36792 11.6417 6.20016 11.4235C6.03447 11.2054 5.82322 10.8802 5.73209 10.7044C5.63889 10.5267 5.37379 10.1065 5.14182 9.76921C4.90985 9.4339 4.63025 8.9875 4.52256 8.77743C4.41279 8.56938 4.21396 8.22801 4.07934 8.02198C3.76867 7.5473 3.40622 6.84235 3.34409 6.58784C3.30474 6.43432 3.33787 6.35555 3.49942 6.20809C3.71689 6.00812 3.73139 6.00812 4.42314 6.21213C4.65718 6.28081 4.86429 6.32121 4.88293 6.30303C4.91607 6.27071 3.33166 0.279629 3.27574 0.225092C3.23432 0.184693 1.37859 1.70367 1.37859 1.77841C1.37859 1.81275 1.21705 1.99656 1.02029 2.18845C0.821461 2.38035 0.54186 2.72171 0.396882 2.94592C0.169058 3.29941 0.121422 3.44686 0.0510043 4.06092C-0.172677 6.00812 0.353388 8.88651 1.35374 11.1731C1.89016 12.4052 2.21326 13.0213 2.59641 13.5485C2.76832 13.7848 3.00028 14.1585 3.11212 14.3766C3.71068 15.5462 5.59747 17.6772 6.91263 18.673C7.81978 19.3598 9.74799 20.5879 10.1933 20.7636C11.496 21.2787 11.8398 21.2989 13.0369 20.9333ZM16.359 18.7276C16.6407 18.0509 16.649 18.0105 16.5247 17.8974C16.4211 17.8004 13.1136 14.9927 12.6579 14.613C12.5502 14.5241 12.4446 14.5564 11.7798 14.8816C11.1439 15.1927 11.0404 15.2654 11.1274 15.3462C11.4422 15.6431 16.0235 19.4749 16.0421 19.4588C16.0525 19.4466 16.1954 19.1174 16.359 18.7276ZM6.19602 5.78391C6.50876 5.55162 6.76351 5.35771 6.76351 5.35367C6.67859 4.96786 5.44213 0.251351 5.41935 0.229132C5.37793 0.188733 3.79973 -0.0273982 3.7666 0.00290073C3.74796 0.0230997 4.18082 1.65721 5.36964 6.0465C5.45456 6.35757 5.40278 6.37574 6.19602 5.78391Z" fill="#1F1F1F"/>
</svg>
