<svg width="45" height="59" viewBox="0 0 45 59" fill="none" xmlns="http://www.w3.org/2000/svg">
<path d="M35.0218 57.6538C37.5426 56.8674 40.2978 55.7997 41.2301 55.2476C41.8499 54.8778 41.9385 54.7528 41.7249 54.5444C40.1624 53.034 29.1676 43.3986 29.0687 43.4611C29.001 43.5028 28.8187 44.1903 28.6728 44.9872C28.3812 46.5549 28.1051 46.9142 27.1885 46.9142C26.4385 46.9142 25.9437 46.4924 25.2197 45.2424C24.9072 44.6955 24.402 43.9299 24.0947 43.5392C23.7874 43.1434 23.1676 42.1642 22.7145 41.3569C22.2666 40.5497 21.4749 39.2215 20.9593 38.4038C19.7718 36.5288 18.3916 34.2424 17.8707 33.2892C17.6468 32.8882 17.1051 32.0653 16.6572 31.4611C16.2093 30.8622 15.6416 29.9663 15.3968 29.4819C15.1468 28.9924 14.4332 27.8361 13.8082 26.909C13.1885 25.9819 12.4384 24.7528 12.1468 24.1747C11.8551 23.6017 11.3187 22.6642 10.9593 22.0965C10.1207 20.7892 9.15199 18.8465 8.98012 18.1486C8.88116 17.7215 8.96449 17.5028 9.40199 17.0965C9.98532 16.5444 10.0218 16.5497 11.8812 17.1069C12.5114 17.2997 13.0687 17.409 13.1155 17.3622C13.2093 17.2736 8.94887 0.77361 8.79782 0.622569C8.68845 0.507985 3.70407 4.69549 3.70407 4.89861C3.70407 4.99236 3.26657 5.50278 2.74053 6.02882C2.20928 6.55486 1.45408 7.49236 1.06866 8.11215C0.454076 9.08611 0.329076 9.49757 0.136367 11.1851C-0.462591 16.5444 0.948867 24.4715 3.63637 30.7736C5.07908 34.1642 5.94887 35.8674 6.97491 37.3153C7.43845 37.9663 8.06345 38.9924 8.36032 39.5965C9.9697 42.8153 15.0322 48.6903 18.5687 51.4299C21.0062 53.3205 26.1832 56.7007 27.3812 57.1851C30.876 58.6017 31.7978 58.659 35.0218 57.659V57.6538ZM43.9437 51.5757C44.6989 49.7163 44.7197 49.6069 44.3864 49.2892C44.1051 49.0236 35.2249 41.2892 34.001 40.2424C33.7145 39.9976 33.4228 40.0913 31.6416 40.9819C29.9332 41.8413 29.6572 42.0444 29.8864 42.2684C30.7353 43.0809 43.0426 53.6382 43.0895 53.5913C43.1207 53.5601 43.5062 52.6538 43.9437 51.5757ZM16.6468 15.9351C17.4853 15.2944 18.1728 14.758 18.1676 14.7424C17.9384 13.6799 14.6155 0.690278 14.5582 0.632986C14.4437 0.518403 10.2041 -0.0753478 10.1207 0.00798555C10.0634 0.0652775 11.2301 4.56528 14.4228 16.6538C14.652 17.5132 14.5114 17.5601 16.6468 15.9351Z" fill="#BE1E2D"/>
</svg>
