<svg width="39" height="39" viewBox="0 0 39 39" fill="none" xmlns="http://www.w3.org/2000/svg">
<path d="M5.20533 8.66108L9.21247 4.6577C9.49513 4.37379 9.83111 4.14853 10.2011 3.99485C10.5711 3.84117 10.9678 3.76211 11.3684 3.76221C12.1849 3.76221 12.9525 4.08203 13.5281 4.6577L17.84 8.96961C18.124 9.25228 18.3492 9.58825 18.5029 9.95824C18.6566 10.3282 18.7356 10.7249 18.7355 11.1256C18.7355 11.942 18.4157 12.7096 17.84 13.2853L14.687 16.4383C15.4251 18.0651 16.4512 19.545 17.7159 20.8067C18.9774 22.0744 20.4572 23.1043 22.0842 23.8468L25.2373 20.6938C25.5199 20.4099 25.8559 20.1846 26.2259 20.0309C26.5959 19.8773 26.9926 19.7982 27.3932 19.7983C28.2097 19.7983 28.9773 20.1181 29.5529 20.6938L33.8686 25.0019C34.1529 25.2851 34.3783 25.6217 34.532 25.9924C34.6857 26.363 34.7646 26.7604 34.7641 27.1616C34.7641 27.9781 34.4443 28.7457 33.8686 29.3214L29.869 33.321C28.9509 34.2428 27.6829 34.7658 26.3811 34.7658C26.1064 34.7658 25.843 34.7432 25.5834 34.6981C20.5115 33.8628 15.4809 31.165 11.4211 27.109C7.36504 23.0567 4.67104 18.0299 3.82446 12.9429C3.56861 11.3889 4.08408 9.78985 5.20533 8.66108Z" fill="black"/>
</svg>
