<svg width="39" height="39" viewBox="0 0 39 39" fill="none" xmlns="http://www.w3.org/2000/svg">
<g clip-path="url(#clip0_2244_74)">
<path d="M5.20435 8.66108L9.21149 4.6577C9.49416 4.37379 9.83014 4.14853 10.2001 3.99485C10.5701 3.84117 10.9668 3.76211 11.3674 3.76221C12.1839 3.76221 12.9515 4.08203 13.5272 4.6577L17.8391 8.96961C18.123 9.25228 18.3482 9.58825 18.5019 9.95824C18.6556 10.3282 18.7347 10.7249 18.7346 11.1256C18.7346 11.942 18.4147 12.7096 17.8391 13.2853L14.686 16.4383C15.4241 18.0651 16.4502 19.545 17.7149 20.8067C18.9764 22.0744 20.4562 23.1043 22.0833 23.8468L25.2363 20.6938C25.519 20.4099 25.8549 20.1846 26.2249 20.0309C26.5949 19.8773 26.9916 19.7982 27.3922 19.7983C28.2087 19.7983 28.9763 20.1181 29.552 20.6938L33.8676 25.0019C34.1519 25.2851 34.3773 25.6217 34.531 25.9924C34.6847 26.363 34.7636 26.7604 34.7631 27.1616C34.7631 27.9781 34.4433 28.7457 33.8676 29.3214L29.868 33.321C28.9499 34.2428 27.682 34.7658 26.3801 34.7658C26.1054 34.7658 25.8421 34.7432 25.5824 34.6981C20.5105 33.8628 15.4799 31.165 11.4201 27.109C7.36407 23.0567 4.67006 18.0299 3.82349 12.9429C3.56763 11.3889 4.0831 9.78985 5.20435 8.66108Z" fill="#C4A668"/>
</g>
<defs>
<clipPath id="clip0_2244_74">
<rect width="38.5287" height="38.5287" fill="white" transform="matrix(-1 0 0 1 38.5287 0)"/>
</clipPath>
</defs>
</svg>
