<svg width="39" height="39" viewBox="0 0 39 39" fill="none" xmlns="http://www.w3.org/2000/svg">
<path d="M7.45862 7.70605H32.9839C35.392 7.70605 36.6056 8.84265 36.6056 11.1544V27.375C36.6056 29.6674 35.392 30.8233 32.9839 30.8233H7.45862C5.05057 30.8233 3.83691 29.6674 3.83691 27.375V11.1544C3.83691 8.84265 5.05057 7.70605 7.45862 7.70605ZM20.2116 24.2734L33.1958 13.6202C33.6582 13.2349 34.0242 12.3488 33.4463 11.5589C32.8876 10.7691 31.8666 10.7498 31.1923 11.2314L20.2116 18.6675L9.2502 11.2314C8.57595 10.7498 7.55494 10.7691 6.99627 11.5589C6.41834 12.3488 6.78436 13.2349 7.24671 13.6202L20.2116 24.2734Z" fill="black"/>
</svg>
