<svg width="39" height="39" viewBox="0 0 39 39" fill="none" xmlns="http://www.w3.org/2000/svg">
<g clip-path="url(#clip0_139_9261)">
<path d="M12.2517 30.5019V14.2548H6.74483V30.5019H12.2517ZM9.49898 12.0352C11.4193 12.0352 12.6147 10.7876 12.6147 9.22857C12.5789 7.63434 11.4194 6.42139 9.53542 6.42139C7.65174 6.42139 6.41992 7.63437 6.41992 9.22857C6.41992 10.7877 7.61495 12.0352 9.46303 12.0352H9.49881H9.49898ZM15.2998 30.5019H20.8066V21.4287C20.8066 20.9431 20.8424 20.4581 20.9878 20.1109C21.3859 19.1408 22.292 18.1359 23.8133 18.1359C25.806 18.1359 26.6032 19.6258 26.6032 21.8099V30.5018H32.1097V21.1858C32.1097 16.1954 29.3929 13.8734 25.7697 13.8734C22.799 13.8734 21.4946 15.5017 20.77 16.6108H20.8068V14.2545H15.2999C15.3721 15.779 15.2999 30.5015 15.2999 30.5015L15.2998 30.5019Z" fill="black"/>
</g>
<defs>
<clipPath id="clip0_139_9261">
<rect width="25.6858" height="24.0805" fill="white" transform="translate(6.4209 6.42139)"/>
</clipPath>
</defs>
</svg>
