<svg width="39" height="39" viewBox="0 0 39 39" fill="none" xmlns="http://www.w3.org/2000/svg">
<g clip-path="url(#clip0_139_9257)">
<path d="M19.2631 12.7737C15.6166 12.7737 12.6754 15.669 12.6754 19.2585C12.6754 22.848 15.6166 25.7433 19.2631 25.7433C22.9096 25.7433 25.8508 22.848 25.8508 19.2585C25.8508 15.669 22.9096 12.7737 19.2631 12.7737ZM19.2631 23.4745C16.9067 23.4745 14.9802 21.5838 14.9802 19.2585C14.9802 16.9333 16.9009 15.0426 19.2631 15.0426C21.6253 15.0426 23.546 16.9333 23.546 19.2585C23.546 21.5838 21.6195 23.4745 19.2631 23.4745ZM27.6569 12.5085C27.6569 13.3494 26.9688 14.021 26.1203 14.021C25.266 14.021 24.5837 13.3438 24.5837 12.5085C24.5837 11.6732 25.2717 10.9959 26.1203 10.9959C26.9688 10.9959 27.6569 11.6732 27.6569 12.5085ZM32.02 14.0436C31.9225 12.0175 31.4524 10.2227 29.9445 8.74403C28.4423 7.26534 26.6191 6.80254 24.5608 6.70095C22.4394 6.58243 16.081 6.58243 13.9597 6.70095C11.9071 6.7969 10.0839 7.25969 8.57596 8.73838C7.06807 10.2171 6.60366 12.0118 6.50046 14.038C6.38006 16.1262 6.38006 22.3852 6.50046 24.4735C6.59793 26.4996 7.06807 28.2943 8.57596 29.773C10.0839 31.2517 11.9014 31.7145 13.9597 31.8161C16.081 31.9346 22.4394 31.9346 24.5608 31.8161C26.6191 31.7202 28.4423 31.2574 29.9445 29.773C31.4467 28.2943 31.9168 26.4996 32.02 24.4735C32.1404 22.3852 32.1404 16.1318 32.02 14.0436ZM29.2794 26.7141C28.8322 27.8203 27.9665 28.6725 26.837 29.1183C25.1456 29.7787 21.1322 29.6263 19.2631 29.6263C17.394 29.6263 13.3749 29.773 11.6892 29.1183C10.5655 28.6781 9.69972 27.8259 9.24678 26.7141C8.57596 25.0491 8.73077 21.0984 8.73077 19.2585C8.73077 17.4186 8.5817 13.4623 9.24678 11.803C9.69398 10.6968 10.5597 9.84458 11.6892 9.39871C13.3806 8.73838 17.394 8.89077 19.2631 8.89077C21.1322 8.89077 25.1513 8.74403 26.837 9.39871C27.9607 9.83894 28.8265 10.6912 29.2794 11.803C29.9502 13.4679 29.7954 17.4186 29.7954 19.2585C29.7954 21.0984 29.9502 25.0548 29.2794 26.7141Z" fill="black"/>
</g>
<defs>
<clipPath id="clip0_139_9257">
<rect width="25.6858" height="28.8966" fill="white" transform="translate(6.4209 4.81592)"/>
</clipPath>
</defs>
</svg>
