<svg width="39" height="39" viewBox="0 0 39 39" fill="none" xmlns="http://www.w3.org/2000/svg">
<g clip-path="url(#clip0_139_9248)">
<path d="M17.8797 34.5553C14.8245 30.7306 8.0293 21.4609 8.0293 16.2541C8.0293 9.93691 13.0604 4.81592 19.2668 4.81592C25.4709 4.81592 30.5044 9.93691 30.5044 16.2541C30.5044 21.4609 23.6565 30.7306 20.654 34.5553C19.9341 35.4668 18.5996 35.4668 17.8797 34.5553ZM19.2668 20.0669C21.3329 20.0669 23.0127 18.3571 23.0127 16.2541C23.0127 14.1512 21.3329 12.4414 19.2668 12.4414C17.2008 12.4414 15.521 14.1512 15.521 16.2541C15.521 18.3571 17.2008 20.0669 19.2668 20.0669Z" fill="black"/>
</g>
<defs>
<clipPath id="clip0_139_9248">
<rect width="22.4751" height="30.5019" fill="white" transform="translate(8.03027 4.81592)"/>
</clipPath>
</defs>
</svg>
