<svg width="400" height="127" viewBox="0 0 400 127" fill="none" xmlns="http://www.w3.org/2000/svg">
<mask id="mask0_142_8" style="mask-type:luminance" maskUnits="userSpaceOnUse" x="2" y="0" width="364" height="56">
<path d="M2.6875 0H365.042V55.9115H2.6875V0Z" fill="white"/>
</mask>
<g mask="url(#mask0_142_8)">
<path d="M2.6875 55.9114C2.6875 55.9114 2.6875 15.0208 283.62 32.6145C283.62 32.6145 212.135 -17.2709 150.016 24.3854C150.016 24.3854 178.224 -15.7969 252.964 6.99475C335.161 32.052 365.047 33.3281 365.047 33.3281C365.047 33.3281 353.104 44.9791 283.792 45.2395C204.031 45.5416 40.724 25.8645 2.6875 55.9114Z" fill="#BE1E2D"/>
</g>
<mask id="mask1_142_8" style="mask-type:luminance" maskUnits="userSpaceOnUse" x="0" y="58" width="400" height="69">
<path d="M400 58.2188H0V126.219H400V58.2188Z" fill="white"/>
</mask>
<g mask="url(#mask1_142_8)">
<path d="M41.8252 111.633H5.6377V66.3828H41.8252C43.4919 66.3828 45.0127 66.7943 46.3877 67.612C47.7627 68.4193 48.8512 69.5078 49.6585 70.8828C50.4762 72.2578 50.8877 73.7734 50.8877 75.4245V102.591C50.8877 104.247 50.4762 105.758 49.6585 107.133C48.8512 108.508 47.7627 109.607 46.3877 110.424C45.0127 111.232 43.4919 111.633 41.8252 111.633ZM14.6794 75.4245V102.591H41.8252V75.4245H14.6794Z" fill="#262627"/>
<path d="M86.6159 66.3828H113.762C115.428 66.3828 116.949 66.7943 118.324 67.612C119.699 68.4193 120.788 69.5078 121.595 70.8828C122.413 72.2578 122.824 73.7734 122.824 75.4245V111.633H113.762V93.5286H86.6159V111.633H77.5742V75.4245C77.5742 73.7734 77.9753 72.2578 78.7826 70.8828C79.5846 69.5078 80.6784 68.4193 82.0534 67.612C83.4388 66.7943 84.9596 66.3828 86.6159 66.3828ZM86.6159 75.4245V84.487H113.762V75.4245H86.6159Z" fill="#262627"/>
<path d="M172.137 111.633C170.095 111.633 168.204 110.919 166.47 109.487L151.199 96.362C150.074 95.3516 149.512 94.1432 149.512 92.737V66.3828H158.553V90.6953L172.137 102.404L185.699 90.6953V66.3828H194.762L194.699 92.737C194.699 94.1693 194.147 95.3776 193.053 96.362L177.783 109.487C176.126 110.919 174.246 111.633 172.137 111.633Z" fill="#262627"/>
<path d="M266.698 66.3828V75.4245H230.49V84.487H266.698V93.5286H230.49V102.591H266.698V111.633H230.49C228.834 111.633 227.313 111.232 225.927 110.424C224.552 109.607 223.459 108.508 222.657 107.133C221.849 105.758 221.448 104.247 221.448 102.591V75.4245C221.448 73.7734 221.849 72.2578 222.657 70.8828C223.459 69.5078 224.552 68.4193 225.927 67.612C227.313 66.7943 228.834 66.3828 230.49 66.3828H266.698Z" fill="#262627"/>
<path d="M295.635 84.487H291.114V75.4245H295.635V66.3828H304.698V75.4245C304.698 77.0911 304.286 78.612 303.468 79.987C302.661 81.362 301.573 82.4609 300.198 83.2786C298.823 84.0859 297.302 84.487 295.635 84.487Z" fill="#262627"/>
<path d="M374.387 66.3828V75.4245H338.178V84.487H365.324C366.991 84.487 368.512 84.8984 369.887 85.7161C371.262 86.5234 372.35 87.612 373.158 88.987C373.975 90.362 374.387 91.8776 374.387 93.5286V102.591C374.387 104.247 373.975 105.758 373.158 107.133C372.35 108.508 371.262 109.607 369.887 110.424C368.512 111.232 366.991 111.633 365.324 111.633H329.137V102.591H365.324V93.5286H338.178C336.522 93.5286 335.001 93.1276 333.616 92.3203C332.241 91.5026 331.147 90.4036 330.345 89.0286C329.538 87.6536 329.137 86.1432 329.137 84.487V75.4245C329.137 73.7734 329.538 72.2578 330.345 70.8828C331.147 69.5078 332.241 68.4193 333.616 67.612C335.001 66.7943 336.522 66.3828 338.178 66.3828H374.387Z" fill="#262627"/>
</g>
</svg>
