<svg width="39" height="39" viewBox="0 0 39 39" fill="none" xmlns="http://www.w3.org/2000/svg">
<g clip-path="url(#clip0_139_9265)">
<path d="M33.713 10.7639C32.6309 11.2206 31.4832 11.5203 30.3079 11.6532C31.5321 10.9542 32.472 9.84735 32.9146 8.52853C31.7509 9.18642 30.4777 9.64994 29.15 9.89908C28.0685 8.80145 26.5279 8.11548 24.8226 8.11548C21.5485 8.11548 18.894 10.6443 18.894 13.7633C18.894 14.206 18.9465 14.637 19.0475 15.0505C14.1204 14.8149 9.75207 12.5664 6.82799 9.14933C6.31779 9.98349 6.02543 10.9538 6.02543 11.9887C6.02543 13.9482 7.07214 15.6769 8.66281 16.6898C7.72136 16.6617 6.80062 16.4194 5.97746 15.9833C5.97712 16.0069 5.97712 16.0306 5.97712 16.0543C5.97712 18.7908 8.02065 21.0736 10.7326 21.5925C9.85963 21.8187 8.94391 21.8518 8.05542 21.6892C8.80978 23.9331 10.9993 25.5659 13.5934 25.6116C11.5644 27.1264 9.0081 28.0294 6.23064 28.0294C5.75205 28.0294 5.28022 28.0026 4.81641 27.9504C7.44001 29.5529 10.5562 30.488 13.9041 30.488C24.8089 30.488 30.7718 21.8817 30.7718 14.4183C30.7718 14.1733 30.7662 13.9298 30.7547 13.6876C31.9153 12.8882 32.9171 11.8982 33.713 10.7639Z" fill="black"/>
</g>
<defs>
<clipPath id="clip0_139_9265">
<rect width="28.8966" height="22.4751" fill="white" transform="translate(4.81543 8.02661)"/>
</clipPath>
</defs>
</svg>
